<svg width="80" height="80" viewBox="0 0 80 80" fill="none" xmlns="http://www.w3.org/2000/svg">
<path fill-rule="evenodd" clip-rule="evenodd" d="M40 80C62.0914 80 80 62.0914 80 40C80 17.9086 62.0914 0 40 0C17.9086 0 0 17.9086 0 40C0 62.0914 17.9086 80 40 80ZM36.9605 20.1063C36.374 22.88 35.9085 26.2409 35.6071 29.9914C37.2604 30.7794 38.9664 31.6397 40.7052 32.5655C42.3622 31.6866 43.9888 30.8676 45.5678 30.1143C45.2667 26.3144 44.7974 22.9103 44.2045 20.1063C43.6673 17.5657 43.0353 15.5502 42.3527 14.1847C42.0108 13.5007 41.6719 13.0116 41.3514 12.7015C41.0329 12.3933 40.7777 12.3025 40.5825 12.3025C40.3872 12.3025 40.132 12.3933 39.8138 12.7015C39.4933 13.0116 39.1542 13.5007 38.8123 14.1847C38.1297 15.5502 37.4977 17.5657 36.9605 20.1063ZM25.3863 25.8162C28.0416 26.6778 31.1033 27.8996 34.4027 29.4258C34.7083 25.8185 35.1659 22.5703 35.7396 19.8569C36.2856 17.2744 36.9434 15.144 37.693 13.6443C38.0672 12.8957 38.4799 12.2724 38.9387 11.8283C39.3996 11.3822 39.9512 11.077 40.5825 11.077C41.2137 11.077 41.7654 11.3822 42.2263 11.8283C42.6852 12.2724 43.0979 12.8957 43.472 13.6443C44.2217 15.144 44.8794 17.2744 45.4256 19.8569C46.0057 22.6008 46.4671 25.8918 46.7726 29.5479C49.0262 28.5044 51.1696 27.6024 53.1491 26.8598C53.1952 26.2331 53.5464 25.6392 54.1417 25.3013C54.9667 24.8332 55.9908 25.01 56.609 25.6725C58.8369 24.9882 60.7746 24.5695 62.2996 24.469C63.1466 24.4132 63.9021 24.4527 64.5228 24.6212C65.1463 24.7904 65.6913 25.1074 66.0068 25.6446C66.3225 26.1819 66.3292 26.8041 66.1666 27.4194C66.0048 28.032 65.6618 28.6948 65.1892 29.3876C64.2425 30.7755 62.6942 32.4006 60.6915 34.1566C58.616 35.9765 56.0252 37.9605 53.0508 39.9949C56.1055 42.0756 58.7626 44.1061 60.8823 45.9655C62.8847 47.7218 64.4328 49.3471 65.3793 50.7351C65.8516 51.4281 66.1943 52.0911 66.3562 52.7036C66.5188 53.3189 66.5118 53.9412 66.1961 54.4785C65.8803 55.0155 65.3354 55.3325 64.7119 55.5016C64.0911 55.67 63.3357 55.7094 62.4887 55.6533C60.7925 55.5413 58.5863 55.0356 56.0379 54.2086C53.3152 53.325 50.1652 52.0629 46.7701 50.4824C46.4646 54.1263 46.004 57.4068 45.4256 60.143C44.8794 62.7257 44.2217 64.856 43.472 66.3558C43.0979 67.1044 42.6852 67.7277 42.2263 68.1718C41.7654 68.618 41.2137 68.9231 40.5825 68.9231C39.9512 68.9231 39.3996 68.618 38.9387 68.1718C38.4799 67.7277 38.0672 67.1044 37.693 66.3558C37.019 65.0072 36.4192 63.1488 35.9081 60.9104C35.0152 60.7153 34.3475 59.9324 34.3475 58.9961C34.3475 58.3204 34.6952 57.7245 35.2244 57.372C34.8891 55.3158 34.6122 53.0407 34.405 50.6008C31.0305 52.1688 27.8998 53.4216 25.1918 54.2996C22.6431 55.1263 20.4369 55.6315 18.7406 55.7433C17.8938 55.7991 17.1383 55.7597 16.5175 55.591C15.894 55.4219 15.3491 55.105 15.0335 54.5677C14.7179 54.0304 14.7111 53.4083 14.8737 52.7929C15.0356 52.1803 15.3785 51.5175 15.8511 50.8246C16.7978 49.4368 18.3462 47.8117 20.3489 46.0557C22.5007 44.1689 25.2063 42.1058 28.319 39.9929C26.2585 38.5875 24.3797 37.2053 22.7258 35.8836C22.1505 36.1577 21.4515 36.1555 20.8562 35.8177C20.0312 35.3493 19.6753 34.3895 19.9501 33.5321C18.2334 31.9775 16.8959 30.5376 16.0449 29.2895C15.5725 28.5966 15.2297 27.9337 15.0679 27.3211C14.9054 26.7058 14.9123 26.0835 15.228 25.5464C15.5437 25.0092 16.0887 24.6923 16.7122 24.5232C17.333 24.3548 18.0886 24.3154 18.9353 24.3713C20.6316 24.4834 22.8377 24.9892 25.3863 25.8162ZM59.8612 33.2421C57.7381 35.1037 55.052 37.1511 51.9495 39.2539C50.4294 38.2438 48.8207 37.2256 47.1387 36.2126C47.0869 34.3666 46.9973 32.5754 46.8741 30.8568C49.2085 29.7639 51.4232 28.8238 53.4583 28.0557C54.0292 28.9348 55.2089 29.2243 56.1369 28.6977C56.8397 28.2989 57.2024 27.5435 57.1246 26.7984C59.2412 26.1558 61.0242 25.7813 62.3832 25.6918C63.1568 25.6408 63.7574 25.6849 64.1909 25.8025C64.6216 25.9195 64.8293 26.0912 64.9268 26.2574C65.0246 26.4236 65.072 26.6861 64.9598 27.1113C64.8465 27.5391 64.5852 28.0722 64.1535 28.7052C63.2915 29.9689 61.8315 31.5146 59.8612 33.2421ZM50.8394 39.9968C49.6672 39.225 48.4424 38.4482 47.1719 37.6727C47.1849 38.4404 47.1916 39.2167 47.1916 40C47.1916 40.7841 47.1849 41.5609 47.1717 42.3293C48.4431 41.5508 49.6679 40.7711 50.8394 39.9968ZM45.6643 31.4318C45.7521 32.7341 45.8204 34.0782 45.8675 35.4564C45.2595 35.0988 44.6425 34.7424 44.0177 34.3877C43.3451 34.0059 42.6752 33.6329 42.0093 33.2691C43.2501 32.6205 44.4709 32.0072 45.6643 31.4318ZM43.394 35.449C42.4906 34.9362 41.593 34.4398 40.7039 33.9607C39.7577 34.4686 38.8017 34.9961 37.8391 35.5422C36.9599 36.0412 36.0971 36.5432 35.2527 37.0467C35.2313 38.0171 35.2204 39.0024 35.2204 40C35.2204 40.9989 35.2314 41.9854 35.2528 42.9568C36.158 43.4985 37.0846 44.039 38.0301 44.5758C38.9275 45.0851 39.819 45.5783 40.7024 46.0545C41.5289 45.6077 42.3627 45.1459 43.2012 44.6701C44.1227 44.1473 45.0261 43.6211 45.9092 43.0933C45.9326 42.0778 45.9446 41.0457 45.9446 40C45.9446 38.9561 45.9326 37.9254 45.9092 36.9114C45.0874 36.4221 44.2484 35.9341 43.394 35.449ZM37.2156 34.4809C37.9475 34.0657 38.676 33.6609 39.3997 33.267C38.0776 32.5731 36.7777 31.9191 35.5092 31.308C35.4144 32.6914 35.3416 34.1225 35.2928 35.592C35.9246 35.2202 36.5658 34.8497 37.2156 34.4809ZM33.9734 40C33.9734 40.7376 33.9793 41.4685 33.991 42.1921C32.7959 41.4589 31.642 40.7248 30.5353 39.9954C31.6428 39.2686 32.7966 38.5377 33.991 37.808C33.9793 38.5316 33.9734 39.2627 33.9734 40ZM34.0225 43.6534C32.4161 42.6811 30.8777 41.7043 29.4213 40.7354C26.1789 42.9164 23.3772 45.0429 21.1791 46.9702C19.2089 48.6978 17.7489 50.2435 16.8869 51.507C16.4552 52.1401 16.1937 52.6732 16.0807 53.101C15.9683 53.5262 16.0159 53.7887 16.1135 53.9549C16.2111 54.1211 16.4187 54.2929 16.8495 54.4099C17.283 54.5275 17.8835 54.5716 18.6572 54.5206C20.2017 54.4187 22.2938 53.949 24.8011 53.1358C27.5684 52.2384 30.8026 50.9359 34.3016 49.2922C34.1698 47.4867 34.0753 45.6003 34.0225 43.6534ZM34.0225 36.3486C32.4179 37.3158 30.8801 38.2879 29.4229 39.2529C27.278 37.8031 25.3294 36.379 23.6252 35.0227C24.1146 34.0973 23.7801 32.9484 22.852 32.4216C22.1494 32.0228 21.3024 32.0918 20.6846 32.5303C19.0603 31.0498 17.8391 29.7193 17.0808 28.6073C16.6492 27.9742 16.3879 27.441 16.2749 27.0132C16.1626 26.5881 16.2102 26.3255 16.3079 26.1593C16.4055 25.9932 16.6131 25.8214 17.044 25.7046C17.4775 25.587 18.078 25.543 18.8516 25.5941C20.3962 25.6962 22.4882 26.1664 24.9953 26.9799C27.7108 27.8611 30.876 29.1326 34.2998 30.7338C34.1688 32.5319 34.075 34.4103 34.0225 36.3486ZM37.4065 45.6371C36.6912 45.2309 35.9863 44.8228 35.293 44.413C35.3421 45.8891 35.4154 47.3264 35.5108 48.7154C36.7801 48.1014 38.0802 47.4448 39.4019 46.7487C38.7403 46.3871 38.0748 46.0163 37.4065 45.6371ZM35.6091 50.0329C37.2621 49.2414 38.9669 48.3787 40.7034 47.4509C42.3595 48.3331 43.9861 49.1557 45.5655 49.913C45.2645 53.702 44.7959 57.0965 44.2045 59.8937C43.6673 62.4343 43.0353 64.4498 42.3527 65.8153C42.0108 66.4995 41.6719 66.9884 41.3514 67.2985C41.0329 67.6069 40.7777 67.6976 40.5825 67.6976C40.3872 67.6976 40.132 67.6069 39.8138 67.2985C39.4933 66.9884 39.1542 66.4995 38.8123 65.8153C38.2117 64.6138 37.6502 62.9091 37.1581 60.7864C37.8535 60.48 38.3379 59.7937 38.3379 58.9961C38.3379 57.9429 37.4929 57.0835 36.4329 57.0372C36.0923 54.9212 35.8132 52.5659 35.6091 50.0329ZM47.1387 43.7909C47.0864 45.6462 46.9963 47.4463 46.8721 49.1726C50.3927 50.8295 53.6466 52.1421 56.4287 53.0448C58.936 53.8584 61.0279 54.3285 62.5725 54.4307C63.3461 54.4817 63.9467 54.4378 64.3802 54.3201C64.8109 54.2032 65.0186 54.0316 65.1161 53.8655C65.2139 53.6993 65.2615 53.4368 65.1493 53.0115C65.0363 52.5838 64.775 52.0504 64.3432 51.4175C63.4816 50.1535 62.0218 48.6076 60.052 46.8798C57.8857 44.9799 55.1336 42.8865 51.951 40.7378C50.4318 41.7511 48.8225 42.7735 47.1387 43.7909ZM42.0038 46.747C43.2456 47.3989 44.4674 48.0156 45.6625 48.5948C45.7511 47.2862 45.8199 45.9351 45.8675 44.5498C45.1969 44.9451 44.5158 45.3393 43.8247 45.7315C43.2152 46.0773 42.6079 46.4158 42.0038 46.747ZM40.5825 43.5541C42.5108 43.5541 44.0741 42.0178 44.0741 40.1226C44.0741 38.2274 42.5108 36.691 40.5825 36.691C38.6541 36.691 37.0909 38.2274 37.0909 40.1226C37.0909 42.0178 38.6541 43.5541 40.5825 43.5541Z" fill="url(#paint0_linear)"/>
<defs>
<linearGradient id="paint0_linear" x1="39.3683" y1="0" x2="39.3683" y2="78.7692" gradientUnits="userSpaceOnUse">
<stop stop-color="#A8A7FF"/>
<stop offset="1" stop-color="#6E6CFF"/>
</linearGradient>
</defs>
</svg>
