<svg width="46" height="45" viewBox="0 0 46 45" fill="none" xmlns="http://www.w3.org/2000/svg">
<path opacity="0.32" d="M43.3472 22.5112C43.3472 33.6855 34.135 42.7719 22.7368 42.7719C11.3382 42.7719 2.12598 33.6855 2.12598 22.5112C2.12598 11.3369 11.3382 2.25049 22.7368 2.25049C34.135 2.25049 43.3472 11.3369 43.3472 22.5112Z" stroke="white" stroke-width="2"/>
<path d="M21.7367 28.0572C21.5391 28.2464 21.3756 28.4029 21.0179 28.4029L21.2684 24.7126L28.0909 18.6556C28.3903 18.3942 28.0254 18.2666 27.628 18.5039L19.2078 23.7299L15.5707 22.6132C14.7853 22.3766 14.7796 21.8456 15.7471 21.4638L29.9198 16.0874C30.5672 15.7982 31.1919 16.2403 30.9447 17.215L28.5311 28.4048C28.3627 29.1999 27.8742 29.3901 27.1976 29.0228L23.5209 26.3503L21.7537 28.041L21.7367 28.0572Z" fill="white"/>
</svg>
