<svg width="45" height="45" viewBox="0 0 45 45" fill="none" xmlns="http://www.w3.org/2000/svg">
<path opacity="0.32" d="M1.56055 22.5114C1.56055 11.3371 10.7728 2.25073 22.1713 2.25073C33.5696 2.25073 42.7818 11.3371 42.7818 22.5114C42.7818 33.6858 33.5696 42.7721 22.1713 42.7721C10.7728 42.7721 1.56055 33.6858 1.56055 22.5114Z" stroke="white" stroke-width="2"/>
<path d="M21.769 19.4604L21.8036 20.0231L21.2255 19.9541C19.1214 19.69 17.2833 18.7944 15.7226 17.2903L14.9595 16.5438L14.7631 17.095C14.3468 18.3236 14.6127 19.6211 15.4798 20.4937C15.9423 20.976 15.8383 21.045 15.0406 20.7579C14.7631 20.666 14.5203 20.5971 14.4971 20.6315C14.4163 20.7121 14.6937 21.757 14.9133 22.1702C15.214 22.7444 15.8267 23.3071 16.4972 23.6401L17.0637 23.9041L16.3932 23.9155C15.7457 23.9155 15.7227 23.9271 15.7919 24.1683C16.0231 24.9146 16.9365 25.707 17.9538 26.0514L18.6705 26.2926L18.0462 26.6599C17.1215 27.1881 16.0347 27.4867 14.948 27.5095C14.4277 27.5211 14 27.5671 14 27.6015C14 27.7163 15.4104 28.3593 16.2313 28.612C18.6937 29.3582 21.6186 29.0368 23.8151 27.7623C25.376 26.8552 26.9367 25.0524 27.6649 23.3071C28.0579 22.3769 28.4513 20.6775 28.4513 19.8622C28.4513 19.334 28.4858 19.2651 29.1331 18.6336C29.5148 18.2663 29.8731 17.8643 29.9424 17.7495C30.0581 17.5314 30.0465 17.5314 29.457 17.7265C28.4742 18.071 28.3356 18.0251 28.8212 17.5084C29.1795 17.1409 29.457 16.3485 29.457 16.1534C29.457 16.1534 29.4338 16.3026 29.2373 16.406C29.0292 16.5209 28.5668 16.693 28.22 16.7964L27.5957 16.9916L27.0292 16.6127C26.717 16.406 26.2777 16.1764 26.0465 16.1075C25.4568 15.9467 24.5551 15.9697 24.0234 16.1534C22.5782 16.6702 21.6648 18.0021 21.769 19.4604Z" fill="white"/>
</svg>
