<svg width="32" height="31" viewBox="0 0 32 31" fill="none" xmlns="http://www.w3.org/2000/svg">
<path fill-rule="evenodd" clip-rule="evenodd" d="M15.5372 0.228516C6.95737 0.228516 0 7.24498 0 15.9009C0 22.8254 4.45188 28.7002 10.6253 30.7726C11.4018 30.9177 11.6869 30.4326 11.6869 30.0186C11.6869 29.645 11.6725 28.4104 11.6658 27.1008C7.34331 28.0489 6.43121 25.2516 6.43121 25.2516C5.72444 23.4401 4.70609 22.9584 4.70609 22.9584C3.2964 21.9857 4.81235 22.0056 4.81235 22.0056C6.37256 22.116 7.19408 23.6206 7.19408 23.6206C8.57984 26.0168 10.8288 25.324 11.7154 24.9236C11.8549 23.9109 12.2575 23.2189 12.7019 22.8278C9.25085 22.4316 5.62307 21.0877 5.62307 15.0824C5.62307 13.3712 6.23001 11.9731 7.22393 10.8756C7.0626 10.4806 6.53079 8.88678 7.37444 6.728C7.37444 6.728 8.67916 6.30677 11.6483 8.3345C12.8877 7.98725 14.2168 7.8131 15.5372 7.80713C16.8576 7.8131 18.1879 7.98725 19.4295 8.3345C22.3951 6.30677 23.698 6.728 23.698 6.728C24.5436 8.88678 24.0116 10.4806 23.8503 10.8756C24.8465 11.9731 25.4493 13.3712 25.4493 15.0824C25.4493 21.102 21.8145 22.4273 18.3548 22.8154C18.9121 23.3017 19.4087 24.2556 19.4087 25.7177C19.4087 27.8145 19.3907 29.5022 19.3907 30.0186C19.3907 30.4357 19.6703 30.9245 20.4579 30.7705C26.628 28.6958 31.0741 22.8232 31.0741 15.9009C31.0741 7.24498 24.1179 0.228516 15.5372 0.228516Z" fill="#B1BDCD"/>
</svg>
