<svg width="31" height="31" viewBox="0 0 31 31" fill="none" xmlns="http://www.w3.org/2000/svg">
<path fill-rule="evenodd" clip-rule="evenodd" d="M0 15.3472C0 6.99742 6.88031 0.228516 15.3677 0.228516C23.8548 0.228516 30.7351 6.99742 30.7351 15.3472C30.7351 23.6971 23.8548 30.466 15.3677 30.466C6.88031 30.466 0 23.6971 0 15.3472ZM12.8963 11.2759L7.97609 8.8843C7.9339 8.86383 7.89375 8.85414 7.8575 8.85414C7.80594 8.85414 7.76219 8.87383 7.7314 8.90992C7.7014 8.94524 7.68375 8.99617 7.68375 9.05993V19.3271C7.68375 19.5019 7.81531 19.7087 7.97609 19.7868L12.5228 21.997C12.5861 22.0277 12.6462 22.0423 12.7006 22.0423C12.8538 22.0423 12.9613 21.9269 12.9613 21.7337V11.3782C12.9613 11.3349 12.9361 11.2952 12.8963 11.2759ZM23.0775 21.9936L18.6592 19.8461L23.5159 12.1737V21.7301C23.5159 21.9922 23.3187 22.1109 23.0775 21.9936ZM13.4278 12.0445V17.3063L18.2388 19.645L13.4278 12.0445ZM18.385 8.81321L23.4002 11.251C23.4627 11.2815 23.4848 11.3573 23.4483 11.4151L18.5126 19.2123L15.062 13.7608L18.1533 8.87743C18.1861 8.8257 18.2467 8.79586 18.3078 8.79586L18.3127 8.79632C18.3375 8.79695 18.3622 8.80211 18.385 8.81321Z" fill="#B1BDCD"/>
</svg>
