<svg width="48" height="48" viewBox="0 0 48 48" fill="none" xmlns="http://www.w3.org/2000/svg">
<path d="M28.7988 28.3098H35.3945" stroke="#3692FE" stroke-width="2"/>
<path d="M5.57422 28.3098H12.1699" stroke="#3692FE" stroke-width="2"/>
<rect x="1" y="16.2013" width="38.7972" height="24.2172" stroke="#3692FE" stroke-width="2"/>
<path d="M6.54102 12.6594H43.3382V34.8765" stroke="#3692FE" stroke-width="2"/>
<path d="M10.2031 9H47.0003V31.2172" stroke="#3692FE" stroke-width="2"/>
<path d="M6.33651 19.1106L4.08008 21.367" stroke="#3692FE" stroke-width="2"/>
<path d="M34.6283 19.1106L36.8848 21.367" stroke="#3692FE" stroke-width="2"/>
<path d="M6.33651 37.509L4.08008 35.2526" stroke="#3692FE" stroke-width="2"/>
<path d="M34.6283 37.509L36.8848 35.2526" stroke="#3692FE" stroke-width="2"/>
<path d="M20.3996 37.6412C22.1869 37.6412 23.581 36.3184 24.4699 34.6773C25.3802 32.9968 25.9124 30.7437 25.9124 28.3098C25.9124 25.8758 25.3802 23.6228 24.4699 21.9423C23.581 20.3012 22.1869 18.9783 20.3996 18.9783C18.6123 18.9783 17.2181 20.3012 16.3292 21.9423C15.4189 23.6228 14.8867 25.8758 14.8867 28.3098C14.8867 30.7437 15.4189 32.9968 16.3292 34.6773C17.2181 36.3184 18.6123 37.6412 20.3996 37.6412Z" stroke="#3692FE" stroke-width="2"/>
</svg>
