<svg width="48" height="48" viewBox="0 0 48 48" fill="none" xmlns="http://www.w3.org/2000/svg">
<path d="M3.88965 9.72717L3.88965 33.3024C3.88965 36.9251 9.34259 39.8618 16.0692 39.8618C17.2203 39.8618 18.3341 39.7758 19.3896 39.6151M28.2487 9.72717V27.5001" stroke="#3692FE" stroke-width="2"/>
<path d="M3.8916 25C4.94251 27.8453 9.91544 30 15.8916 30C21.8678 30 26.8407 27.8453 27.8916 25" stroke="#3692FE" stroke-width="2" stroke-linecap="round" stroke-linejoin="round"/>
<path d="M3.8916 20C4.94251 22.8453 9.91544 25 15.8916 25C21.8678 25 26.8407 22.8453 27.8916 20" stroke="#3692FE" stroke-width="2" stroke-linecap="round" stroke-linejoin="round"/>
<path d="M3.8916 15C4.94251 17.8453 9.91544 20 15.8916 20C21.8678 20 26.8407 17.8453 27.8916 15" stroke="#3692FE" stroke-width="2" stroke-linecap="round" stroke-linejoin="round"/>
<path d="M3.8916 30C4.94251 32.8453 9.91544 35 15.8916 35C16.9268 35 17.9318 34.9354 18.8916 34.8137" stroke="#3692FE" stroke-width="2" stroke-linecap="round" stroke-linejoin="round"/>
<path d="M28.2476 9.56189C28.2476 10.7911 27.2251 12.1731 24.9565 13.3074C22.7477 14.4118 19.6262 15.1238 16.1238 15.1238C12.6213 15.1238 9.4999 14.4118 7.29108 13.3074C5.02245 12.1731 4 10.7911 4 9.56189C4 8.3327 5.02245 6.95068 7.29108 5.81636C9.4999 4.71195 12.6213 4 16.1238 4C19.6262 4 22.7477 4.71195 24.9565 5.81636C27.2251 6.95068 28.2476 8.3327 28.2476 9.56189Z" stroke="#3692FE" stroke-width="2"/>
<path d="M18.7812 33.296V37.5587C18.7812 41.1813 24.2342 44.118 30.9608 44.118C37.6873 44.118 43.1403 41.1813 43.1403 37.5587V33.296" stroke="#3692FE" stroke-width="2"/>
<path d="M43.1382 33.1307C43.1382 34.3599 42.1157 35.7419 39.8471 36.8763C37.6383 37.9807 34.5169 38.6926 31.0144 38.6926C27.512 38.6926 24.3905 37.9807 22.1817 36.8763C19.9131 35.7419 18.8906 34.3599 18.8906 33.1307C18.8906 31.9015 19.9131 30.5195 22.1817 29.3852C24.3905 28.2808 27.512 27.5688 31.0144 27.5688C34.5169 27.5688 37.6383 28.2808 39.8471 29.3852C42.1157 30.5195 43.1382 31.9015 43.1382 33.1307Z" stroke="#3692FE" stroke-width="2"/>
</svg>
