<svg width="48" height="48" viewBox="0 0 48 48" fill="none" xmlns="http://www.w3.org/2000/svg">
<path d="M19.209 27.4915H15.4632C13.9421 27.4915 12.709 28.7246 12.709 30.2458V30.2458C12.709 31.7669 13.9421 33 15.4632 33H16.9505C18.4412 33 19.6497 34.2084 19.6497 35.6991V35.6991C19.6497 37.1898 18.4412 38.3983 16.9505 38.3983H12.709" stroke="#3692FE" stroke-width="2"/>
<path d="M29.7414 30.3077C29.9111 31.179 30 32.0791 30 33C30 40.732 23.732 47 16 47C8.26801 47 2 40.732 2 33C2 25.268 8.26801 19 16 19C16.9209 19 17.8211 19.0889 18.6923 19.2586" stroke="#3692FE" stroke-width="2"/>
<path d="M16.1094 24.6272V27.4916" stroke="#3692FE" stroke-width="2"/>
<path d="M16.1094 38.2881V41.1525" stroke="#3692FE" stroke-width="2"/>
<circle cx="32" cy="17" r="14" stroke="#3692FE" stroke-width="2"/>
<path d="M35.2109 11.4915H31.4652C29.9441 11.4915 28.7109 12.7246 28.7109 14.2457V14.2457C28.7109 15.7668 29.9441 16.9999 31.4652 16.9999H32.9525C34.4432 16.9999 35.6516 18.2084 35.6516 19.6991V19.6991C35.6516 21.1898 34.4432 22.3982 32.9525 22.3982H28.7109" stroke="#3692FE" stroke-width="2"/>
<path d="M32.1094 8.6272V11.4916" stroke="#3692FE" stroke-width="2"/>
<path d="M32.1094 22.2881V25.1525" stroke="#3692FE" stroke-width="2"/>
<path d="M8 7L8 15" stroke="#3692FE" stroke-width="2"/>
<path d="M13 1L13 15" stroke="#3692FE" stroke-width="2"/>
</svg>
