<svg width="48" height="48" viewBox="0 0 48 48" fill="none" xmlns="http://www.w3.org/2000/svg">
<path d="M17.2636 5.78925C16.7279 4.78915 16.9102 3.55618 17.7124 2.75392C18.4958 1.97056 19.6925 1.77635 20.6834 2.27179L22.1685 3.01435C23.5417 3.70093 25.1579 3.70093 26.5311 3.01435L28.0162 2.27179C29.0071 1.77635 30.2038 1.97056 30.9872 2.75392C31.7895 3.55618 31.9718 4.78915 31.436 5.78925C30.0462 8.5645 27.7227 13.359 29.7422 14.2531C34.4978 16.3586 43.8771 23.1496 43.8771 33.751C43.8771 44.4023 35.5337 46 31.2731 46H17.604C13.3435 46 5 44.4023 5 33.751C5 23.0998 14.4678 16.2948 19.2017 14.2237C21.2304 13.3361 17.6458 6.41764 17.2636 5.78925Z" stroke="#3692FE" stroke-width="2"/>
<path d="M27.1917 24.7922H23.7581C22.3638 24.7922 21.2334 25.9225 21.2334 27.3169V27.3169C21.2334 28.7113 22.3638 29.8416 23.7581 29.8416H25.1215C26.4879 29.8416 27.5957 30.9494 27.5957 32.3158V32.3158C27.5957 33.6823 26.4879 34.7901 25.1215 34.7901H21.2334" stroke="#3692FE" stroke-width="2"/>
<path d="M24.3486 22.1666V24.7923" stroke="#3692FE" stroke-width="2"/>
<path d="M24.3486 34.6891V37.3148" stroke="#3692FE" stroke-width="2"/>
<path d="M19.5557 13.8688H29.1418" stroke="#3692FE" stroke-width="2"/>
<path d="M18.8467 9.96332H29.853" stroke="#3692FE" stroke-width="2"/>
</svg>
