<svg width="31" height="31" viewBox="0 0 31 31" fill="none" xmlns="http://www.w3.org/2000/svg">
<path fill-rule="evenodd" clip-rule="evenodd" d="M15.3677 30.466C23.8548 30.466 30.7351 23.6971 30.7351 15.3472C30.7351 6.99742 23.8548 0.228516 15.3677 0.228516C6.88031 0.228516 0 6.99742 0 15.3472C0 23.6971 6.88031 30.466 15.3677 30.466ZM12.5503 22.2768C12.924 22.2768 13.0948 22.1132 13.3012 21.9156L13.3188 21.8988L15.1645 20.133L19.0047 22.9243C19.7114 23.3079 20.2216 23.1093 20.3974 22.2788L22.9184 10.5916C23.1766 9.57351 22.524 9.11179 21.8479 9.41383L7.04516 15.0293C6.03469 15.428 6.04063 15.9826 6.86094 16.2298L10.6597 17.3961L19.4542 11.9377C19.8693 11.6899 20.2504 11.8232 19.9377 12.0962L12.8119 18.4224L12.5503 22.2768Z" fill="#B1BDCD"/>
</svg>
