<svg width="31" height="31" viewBox="0 0 31 31" fill="none" xmlns="http://www.w3.org/2000/svg">
<path fill-rule="evenodd" clip-rule="evenodd" d="M15.3677 0.228516C6.8803 0.228516 0 6.99742 0 15.3472C0 23.6971 6.8803 30.466 15.3677 30.466C23.8548 30.466 30.7351 23.6971 30.7351 15.3472C30.7351 6.99742 23.8548 0.228516 15.3677 0.228516ZM14.9396 13.0404L14.9075 12.5173C14.8106 11.1613 15.6599 9.92289 17.0036 9.44242C17.498 9.27164 18.3364 9.25024 18.8847 9.39977C19.0996 9.46383 19.5081 9.67727 19.7984 9.86945L20.3251 10.2218L20.9056 10.0402C21.228 9.94414 21.658 9.78414 21.8515 9.67727C22.0342 9.58117 22.1955 9.52789 22.1955 9.55992C22.1955 9.74132 21.7978 10.3605 21.4646 10.7023C21.0131 11.1827 21.142 11.2254 22.0558 10.9051C22.6039 10.7237 22.6147 10.7237 22.5071 10.9265C22.4426 11.0332 22.1096 11.4069 21.7546 11.7485C21.1528 12.3357 21.1206 12.3998 21.1206 12.8909C21.1206 13.6489 20.7549 15.229 20.3895 16.0939C19.7124 17.7166 18.2612 19.3929 16.81 20.2363C14.7676 21.4213 12.0481 21.7202 9.75859 21.0263C8.99531 20.7915 7.6839 20.1936 7.6839 20.0868C7.6839 20.0548 8.08156 20.0121 8.56531 20.0013C9.57578 19.9801 10.5863 19.7024 11.4461 19.2113L12.0266 18.8698L11.3602 18.6455C10.4142 18.3253 9.565 17.5885 9.35 16.8946C9.28562 16.6704 9.30703 16.6596 9.90907 16.6596L10.5325 16.649L10.0058 16.4035C9.38235 16.0939 8.81266 15.5707 8.53312 15.0368C8.32891 14.6526 8.07094 13.6811 8.1461 13.6062C8.16765 13.5742 8.39343 13.6382 8.6514 13.7237C9.39312 13.9906 9.48984 13.9264 9.05984 13.4781C8.25359 12.6666 8.0064 11.4602 8.39343 10.3179L8.57609 9.80538L9.28562 10.4995C10.7367 11.898 12.4458 12.7307 14.4022 12.9763L14.9396 13.0404Z" fill="#B1BDCD"/>
</svg>
