<svg width="32" height="33" viewBox="0 0 32 33" fill="none" xmlns="http://www.w3.org/2000/svg">
<path fill-rule="evenodd" clip-rule="evenodd" d="M16 32.2285C24.8366 32.2285 32 25.0651 32 16.2285C32 7.39194 24.8366 0.228516 16 0.228516C7.16342 0.228516 0 7.39194 0 16.2285C0 25.0651 7.16342 32.2285 16 32.2285ZM8.53849 9.98857C10.0816 9.58236 16.2299 9.58236 16.2299 9.58236C16.2299 9.58236 22.3905 9.58236 23.9337 10.0132C24.7721 10.2347 25.4402 10.9116 25.659 11.7609C26.0842 13.324 26.0721 16.5735 26.0721 16.5735C26.0721 16.5735 26.0721 19.8107 25.659 21.3616C25.4402 22.2231 24.7721 22.8877 23.9337 23.1216C22.3905 23.5277 16.2299 23.5277 16.2299 23.5277C16.2299 23.5277 10.0938 23.5277 8.53849 23.1093C7.70004 22.8754 7.03188 22.1985 6.80099 21.3493C6.4 19.8107 6.4 16.5612 6.4 16.5612C6.4 16.5612 6.4 13.324 6.80099 11.7609C7.03188 10.9116 7.7122 10.2224 8.53849 9.98857ZM19.3893 16.5612L14.2737 13.5703V19.5398L19.3893 16.5612Z" fill="#B1BDCD"/>
</svg>
